<?xml version="1.0" encoding="UTF-8"?>
<svg version="1.1" xmlns="http://www.w3.org/2000/svg" width="720" height="720">
<path d="M0 0 C237.6 0 475.2 0 720 0 C720 237.6 720 475.2 720 720 C482.4 720 244.8 720 0 720 C0 482.4 0 244.8 0 0 Z " fill="#FDFDFE" transform="translate(0,0)"/>
<path d="M0 0 C1.80374783 -0.00504711 3.60749066 -0.01227721 5.41122198 -0.02149814 C10.36035891 -0.04042388 15.30900158 -0.02818473 20.25812602 -0.01077521 C25.5983648 0.00259395 30.93853105 -0.0128367 36.27876282 -0.02459717 C46.7373287 -0.04298142 57.19570783 -0.03445613 67.65426791 -0.01650894 C76.15373658 -0.0024864 84.65315454 0.00141059 93.15263367 -0.00195122 C94.36207283 -0.00242866 95.57151199 -0.0029061 96.81760082 -0.00339801 C99.27451171 -0.00442434 101.73142259 -0.0054797 104.18833345 -0.00656378 C125.91632381 -0.01513243 147.64422397 0.00154958 169.37219238 0.03126526 C190.45849395 0.06010302 211.54466557 0.06718639 232.63098145 0.05177307 C255.58962107 0.03501415 278.548199 0.03097358 301.50684023 0.04848343 C303.9547402 0.05032783 306.40264018 0.05216256 308.85054016 0.0539875 C310.65718604 0.05535564 310.65718604 0.05535564 312.50032982 0.05675141 C320.99011388 0.06235872 329.47986784 0.05904781 337.96965027 0.05244255 C348.3151115 0.04471313 358.6604448 0.05144796 369.00588024 0.07661759 C374.28483542 0.0891216 379.56359132 0.09524811 384.84255409 0.08407593 C389.67487319 0.07404206 394.5067947 0.08247518 399.33906537 0.10565711 C401.08726795 0.11082032 402.83550609 0.1092475 404.58369321 0.10026246 C420.8381396 0.02366961 420.8381396 0.02366961 427.50158691 4.62818909 C429.56018066 6.69850159 429.56018066 6.69850159 430.93908691 8.75318909 C431.41217285 9.43639221 431.88525879 10.11959534 432.37268066 10.82350159 C434.67092802 14.49751639 434.64486511 17.44274583 434.63580799 21.6767292 C434.63816022 22.41445942 434.64051245 23.15218964 434.64293596 23.91227531 C434.64964763 26.40988973 434.64916709 28.90745238 434.64875793 31.40507507 C434.65205522 33.20363821 434.6557805 35.00220061 434.65989941 36.80076206 C434.66994308 41.76328732 434.67364001 46.72580048 434.67628872 51.68833447 C434.68018482 57.03274744 434.68976368 62.37715078 434.69850159 67.72155762 C434.71828648 80.63893097 434.72833512 93.55630513 434.73722938 106.47368985 C434.74160928 112.55245122 434.74697688 118.63121171 434.75221825 124.70997238 C434.76923314 144.91035595 434.78372785 165.11073898 434.79096699 185.31112862 C434.79287698 190.55613836 434.79479729 195.80114811 434.79675293 201.04615784 C434.79723667 202.34982701 434.79772041 203.65349617 434.79821881 204.99667047 C434.80652106 226.1205411 434.83186014 247.24435513 434.86433361 268.36820103 C434.8973815 290.04194197 434.91541373 311.71565412 434.91861123 333.38942039 C434.92077851 345.56393622 434.92955901 357.73836955 434.9550724 369.91286087 C434.97674845 380.28040247 434.9848451 390.64784154 434.97510562 401.01540323 C434.97055185 406.30648458 434.97250969 411.59735424 434.99186707 416.88840675 C435.0094347 421.73204032 435.0085531 426.57530675 434.99296977 431.41894387 C434.99058394 433.17137458 434.99496756 434.92383029 435.00679842 436.6762227 C435.10994572 452.96309389 435.10994572 452.96309389 430.50158691 459.62818909 C428.46643066 461.68678284 428.46643066 461.68678284 426.43908691 463.06568909 C425.76748535 463.53877502 425.09588379 464.01186096 424.40393066 464.49928284 C420.38815254 466.88236267 416.92137484 466.75620536 412.34561634 466.76241016 C411.23982281 466.76593851 411.23982281 466.76593851 410.11169001 466.76953813 C407.6219155 466.77623693 405.13219306 466.77576965 402.64241028 466.77536011 C400.84710888 466.77865818 399.05180823 466.78238363 397.25650853 466.78650159 C392.30764419 466.79653608 387.35879198 466.80024071 382.4099189 466.8028909 C377.07847522 466.80678964 371.74704118 466.81636825 366.41560364 466.82510376 C353.53276024 466.84488003 340.64991605 466.85493572 327.76706126 466.86383155 C321.70374311 466.86821243 315.64042584 466.87357974 309.57710838 466.87882042 C289.42729657 466.89583363 269.27748532 466.9103286 249.12766743 466.91756916 C243.89691988 466.91947913 238.66617234 466.92139945 233.4354248 466.9233551 C231.48525523 466.92408071 231.48525523 466.92408071 229.49568828 466.92482098 C208.42684664 466.93312424 187.35806173 466.95846575 166.28924487 466.99093578 C144.66971287 467.02398354 123.05020972 467.04201584 101.43065232 467.0452134 C89.28745043 467.04738058 77.14433126 467.05615968 65.00115395 467.08167458 C54.66108486 467.10335035 44.32111859 467.11144737 33.98102937 467.10170779 C28.70411771 467.09715409 23.42741832 467.09911153 18.15053558 467.11846924 C13.31989455 467.13603713 8.48962165 467.13515507 3.65897705 467.11957195 C1.91128682 467.11718617 0.16357152 467.12156945 -1.5840803 467.1334006 C-17.82717231 467.23655216 -17.82717231 467.23655216 -24.49841309 462.62818909 C-26.55700684 460.59303284 -26.55700684 460.59303284 -27.93591309 458.56568909 C-28.40899902 457.89408752 -28.88208496 457.22248596 -29.36950684 456.53053284 C-31.71406586 452.57966694 -31.64408572 448.9011783 -31.63822079 444.45939445 C-31.64264792 443.35151776 -31.64264792 443.35151776 -31.64716449 442.22125971 C-31.65588104 439.72675497 -31.65743845 437.23229646 -31.65904236 434.73777771 C-31.66377159 432.93906389 -31.66892226 431.14035115 -31.67445999 429.34163964 C-31.68838978 424.38330789 -31.69595637 419.42498349 -31.70243299 414.46663713 C-31.70879737 410.2175857 -31.71886838 405.96854639 -31.72899365 401.71950249 C-31.76234121 387.71880993 -31.78384303 373.71810999 -31.80219349 359.71739072 C-31.80698723 356.07278418 -31.8119707 352.42817794 -31.81699872 348.78357172 C-31.84796774 326.16069719 -31.87465874 303.53782013 -31.8914175 280.91493034 C-31.89536713 275.67319102 -31.89937011 270.43145175 -31.90344238 265.18971252 C-31.90445074 263.88687117 -31.9054591 262.58402981 -31.90649802 261.24170841 C-31.92350877 240.13147897 -31.96462162 219.02136667 -32.01546537 197.91119443 C-32.06721372 176.24758861 -32.09635608 154.58404307 -32.10361439 132.92037594 C-32.10828006 120.75306033 -32.12306731 108.58593658 -32.16335869 96.4186821 C-32.19762767 86.05738477 -32.21161063 75.69631389 -32.19893455 65.33496313 C-32.19310045 60.04769793 -32.1970248 54.76091187 -32.22710419 49.47371864 C-32.25442239 44.63239352 -32.25400126 39.79188894 -32.23159374 34.95054592 C-32.22836542 33.20013847 -32.23527056 31.44967651 -32.25339096 29.69935988 C-32.41145928 13.44415083 -32.41145928 13.44415083 -27.27164465 7.34108359 C-26.39389503 6.49320081 -26.39389503 6.49320081 -25.49841309 5.62818909 C-24.98306391 5.09362262 -24.46771474 4.55905616 -23.93674892 4.00829071 C-17.38115702 -1.34136516 -7.97990681 -0.0585754 0 0 Z " fill="#2082D6" transform="translate(158.4984130859375,63.37181091308594)"/>
<path d="M0 0 C5.31480756 2.65740378 9.59234638 7.18469275 12.25 12.5 C12.347982 13.9009736 12.38501257 15.30646066 12.39044189 16.71084595 C12.39615204 17.59393433 12.40186218 18.47702271 12.40774536 19.38687134 C12.40886322 20.35829071 12.40998108 21.32971008 12.41113281 22.33056641 C12.41609772 23.3518866 12.42106262 24.37320679 12.42617798 25.42547607 C12.44082855 28.81751166 12.44760768 32.20950042 12.453125 35.6015625 C12.45887564 37.95608522 12.46463338 40.31060793 12.47039795 42.66513062 C12.48091725 47.60992654 12.48675332 52.55470617 12.49023438 57.49951172 C12.4957102 63.82794303 12.51971498 70.15615821 12.54820633 76.48452187 C12.5668581 81.35220969 12.57203975 86.21984584 12.57357025 91.08756638 C12.57659336 93.41989697 12.5846103 95.75222673 12.59775543 98.08452225 C12.61486278 101.35420227 12.61292358 104.62335944 12.60644531 107.89306641 C12.6156601 108.85234039 12.62487488 109.81161438 12.6343689 110.79995728 C12.58744595 118.38297726 11.24777486 125.2044997 5.95703125 131.0546875 C-4.13219018 139.5970489 -15.16048827 140.79962316 -27.82441711 140.76742554 C-29.1343116 140.77195665 -30.44420608 140.77648776 -31.79379433 140.78115618 C-35.41441356 140.79334738 -39.03494011 140.79313032 -42.65557516 140.79076743 C-46.56639796 140.79035828 -50.47719145 140.80140769 -54.38800049 140.81088257 C-62.04411966 140.82747187 -69.70020802 140.83299116 -77.35634366 140.83410732 C-83.58127302 140.83505871 -89.80619224 140.83917354 -96.03111839 140.84550858 C-113.69148268 140.86311478 -131.35182268 140.87234833 -149.0121958 140.87084763 C-149.9636082 140.87076772 -150.9150206 140.8706878 -151.89526367 140.87060547 C-152.84784159 140.87052371 -153.8004195 140.87044195 -154.78186341 140.87035771 C-170.21926397 140.86954482 -185.65656695 140.88868471 -201.09393928 140.9168822 C-216.95623669 140.94562658 -232.81848653 140.95942166 -248.68081063 140.95769465 C-257.58178244 140.95703132 -266.48265193 140.96249869 -275.38360023 140.98405075 C-282.96181004 141.00228293 -290.53987114 141.00659313 -298.11809341 140.9930319 C-301.98179927 140.9865127 -305.84522 140.98634687 -309.70889854 141.0037384 C-313.90435758 141.02242858 -318.09915966 141.00988756 -322.29463196 140.99447632 C-323.50612815 141.00476344 -324.71762434 141.01505057 -325.96583253 141.02564943 C-337.21284136 140.93451919 -347.05238544 137.8233553 -355.75 130.5 C-359.27444148 126.46788273 -360.87001117 122.46219329 -360.89044189 117.12420654 C-360.89615204 116.22988419 -360.90186218 115.33556183 -360.90774536 114.41413879 C-360.90886322 113.43539291 -360.90998108 112.45664703 -360.91113281 111.44824219 C-360.91609772 110.41541611 -360.92106262 109.38259003 -360.92617798 108.31846619 C-360.94080726 104.89459572 -360.94760329 101.47077161 -360.953125 98.046875 C-360.9588763 95.66896564 -360.96463404 93.2910563 -360.97039795 90.91314697 C-360.98091045 85.92305281 -360.98675133 80.93297477 -360.99023438 75.94287109 C-360.99571626 69.55271598 -361.01973694 63.16277424 -361.04820633 56.772686 C-361.0668433 51.85871766 -361.07203891 46.94480057 -361.07357025 42.03079987 C-361.07659545 39.67531418 -361.08461948 37.31982936 -361.09775543 34.96437836 C-361.11483584 31.66586657 -361.11293042 28.36787418 -361.10644531 25.06933594 C-361.1156601 24.09868698 -361.12487488 23.12803802 -361.1343689 22.12797546 C-361.09500529 15.72704783 -360.4139461 10.61214556 -356.1015625 5.57421875 C-355.53179687 5.11660156 -354.96203125 4.65898437 -354.375 4.1875 C-353.81039062 3.71699219 -353.24578125 3.24648438 -352.6640625 2.76171875 C-346.41959197 -1.35453428 -339.99434806 -1.07310046 -332.75 -0.5 C-327.51824635 0.6936978 -323.50184039 3.74815961 -319.75 7.5 C-307.06492566 32.87014869 -315.75 64.13531147 -315.75 92.5 C-222.36 92.5 -128.97 92.5 -32.75 92.5 C-32.75 67.09 -32.75 41.68 -32.75 15.5 C-27.11791315 4.2358263 -27.11791315 4.2358263 -23.125 1.9375 C-22.36960937 1.48246094 -21.61421875 1.02742188 -20.8359375 0.55859375 C-14.39236824 -2.71145731 -6.6838894 -2.60694655 0 0 Z " fill="#F8F8F8" transform="translate(536.75,334.5)"/>
<path d="M0 0 C4.66928429 4.66928429 6.7491242 9.9951969 6.85499835 16.55360031 C6.84723793 17.30459629 6.83947752 18.05559227 6.83148193 18.8293457 C6.84273381 20.05853918 6.84273381 20.05853918 6.854213 21.31256485 C6.87439278 24.03806633 6.86640679 26.76272816 6.85839844 29.48828125 C6.86713874 31.45003579 6.87762611 33.4117832 6.88972473 35.3735199 C6.91754924 40.68491714 6.92099019 45.99608135 6.92000484 51.30754089 C6.92313697 56.8636088 6.94876148 62.41957223 6.97198486 67.97558594 C7.0125253 78.49031883 7.03288101 89.00498974 7.04595876 99.51978874 C7.06183539 111.49319987 7.10025387 123.46650561 7.14055204 135.43985558 C7.22292426 160.064035 7.27703314 184.6882115 7.3125 209.3125 C7.79390694 208.76110352 8.27531387 208.20970703 8.7713089 207.64160156 C9.40240318 206.9194043 10.03349747 206.19720703 10.68371582 205.453125 C11.30949776 204.73672852 11.93527969 204.02033203 12.58002472 203.28222656 C14.36154232 201.25674166 16.17590719 199.27055319 18.03125 197.3125 C18.96517578 196.3225 18.96517578 196.3225 19.91796875 195.3125 C21.18098958 193.97916667 22.44401042 192.64583333 23.70703125 191.3125 C27.4244915 187.37183821 31.03732713 183.36302056 34.58886719 179.27246094 C37.3839962 176.09409044 40.28583768 173.01835269 43.1875 169.9375 C47.16193044 165.6988415 51.12085181 161.45147339 55 157.125 C55.69351563 156.35542969 56.38703125 155.58585938 57.1015625 154.79296875 C58.75916843 152.93328718 60.39527548 151.06087157 62.0234375 149.17578125 C72.51740316 137.16231102 72.51740316 137.16231102 80.5234375 135.98828125 C85.7988029 135.72721368 90.78111429 136.50910722 95.3125 139.3125 C103.08354958 146.66268035 103.08354958 146.66268035 103.55078125 152.0703125 C103.75574302 161.36910448 103.01135257 166.36669936 96.62109375 173.18359375 C94.53298212 175.30209856 92.40577603 177.37578129 90.26171875 179.4375 C87.98178239 181.63378865 85.85574233 183.89087946 83.8125 186.3125 C80.8198396 189.83327694 77.5971735 193.0679753 74.3125 196.3125 C71.04867385 199.53648087 67.84419859 202.74767847 64.875 206.25 C61.71239997 209.97207718 58.28279022 213.38115804 54.8125 216.8125 C51.38404895 220.20255854 47.98989258 223.56444008 44.875 227.25 C40.998501 231.82601762 36.6872532 235.96236201 32.42822266 240.17724609 C28.85568081 243.72691758 25.46653123 247.34398977 22.21484375 251.19140625 C18.99142738 254.78548241 15.51751696 258.13317475 12.07885742 261.52001953 C9.08056304 264.48839601 6.24376908 267.48611871 3.5625 270.75 C-0.98556812 276.03740924 -6.30792643 280.23433345 -13.3125 281.4375 C-21.02607698 281.77113222 -26.1699027 276.3223126 -31.51953125 271.4296875 C-34.02940844 268.97860022 -36.28223874 266.38992903 -38.54296875 263.7109375 C-41.46244828 260.4458001 -44.57315826 257.39076046 -47.6875 254.3125 C-51.89787919 250.14633143 -55.95993713 245.95961638 -59.78515625 241.43359375 C-63.01251185 237.83512539 -66.49374973 234.4872647 -69.92993164 231.08959961 C-73.37138165 227.67194185 -76.61358651 224.16971791 -79.75 220.46875 C-82.44780585 217.46635317 -85.31793819 214.64989183 -88.1875 211.8125 C-92.2204811 207.82473169 -96.08152462 203.79755095 -99.75 199.46875 C-102.98771251 195.86548931 -106.47268629 192.50794275 -109.91650391 189.10302734 C-113.48928194 185.55509621 -116.88635169 181.92636255 -120.1328125 178.07421875 C-121.80492503 176.17943797 -123.59659066 174.48014923 -125.4375 172.75 C-130.70888258 167.45492581 -131.8586134 163.08395612 -132.125 155.75 C-131.96113498 149.53025381 -130.78628426 146.26214491 -126.2265625 141.921875 C-121.06807952 137.36565145 -117.19272473 135.7247007 -110.37890625 135.97265625 C-97.96592699 137.5400426 -90.45656049 148.52107619 -82.6875 157.3125 C-81.12579694 159.04238646 -79.56344246 160.77168542 -78 162.5 C-77.31292969 163.26957031 -76.62585938 164.03914062 -75.91796875 164.83203125 C-73.24191088 167.80803256 -70.53013264 170.7494955 -67.8125 173.6875 C-63.0041898 178.88571435 -58.21013604 184.09646004 -53.4296875 189.3203125 C-51.52316639 191.40303195 -49.61094635 193.48034742 -47.6953125 195.5546875 C-47.20232666 196.08956787 -46.70934082 196.62444824 -46.20141602 197.17553711 C-44.83451042 198.65832502 -43.4661316 200.13975445 -42.09765625 201.62109375 C-39.86115558 204.11857991 -37.77002731 206.6867286 -35.6875 209.3125 C-35.68603344 208.29428162 -35.68456688 207.27606323 -35.68305588 206.22698975 C-35.6464548 181.44719848 -35.58699713 156.66754231 -35.50359726 131.88786316 C-35.46379432 119.90456926 -35.43140816 107.92134115 -35.41650391 95.93798828 C-35.40349395 85.49283881 -35.3765459 75.04783403 -35.33288693 64.60276604 C-35.31025755 59.07257768 -35.29459022 53.54256787 -35.29561615 48.0123291 C-35.29636187 42.8051366 -35.27844586 37.59833903 -35.24633217 32.3912487 C-35.2378264 30.48213439 -35.23608783 28.57297581 -35.24169731 26.66385078 C-35.24834854 24.0518896 -35.23039033 21.44118085 -35.20648193 18.8293457 C-35.21424235 18.07834972 -35.22200277 17.32735374 -35.22999835 16.55360031 C-35.12749271 10.20385976 -33.15573588 4.85304748 -28.6875 0.25390625 C-28.0275 -0.20113281 -27.3675 -0.65617187 -26.6875 -1.125 C-26.0275 -1.59808594 -25.3675 -2.07117188 -24.6875 -2.55859375 C-16.47488088 -7.19423227 -7.51615059 -4.71944339 0 0 Z " fill="#FDFEFE" transform="translate(376.6875,122.6875)"/>
<path d="M0 0 C0.33 0 0.66 0 1 0 C1.00331015 0.99798048 1.00662029 1.99596096 1.01003075 3.02418327 C1.09092485 27.27609077 1.18320941 51.52793436 1.28752708 75.77975273 C1.33770839 87.50761478 1.38415056 99.23546963 1.421875 110.96337891 C1.45475432 121.18210096 1.49456283 131.40076813 1.54279006 141.61942971 C1.56809555 147.03312781 1.58986475 152.44678932 1.60334396 157.86053085 C1.61612771 162.95105343 1.63814182 168.04145077 1.66738319 173.1319046 C1.67648795 175.00484238 1.6821559 176.87780035 1.68421364 178.75075912 C1.68751583 181.29881703 1.70293707 183.84651541 1.7215271 186.39450073 C1.71959237 187.14351902 1.71765763 187.89253731 1.71566427 188.66425312 C1.6338673 192.78556509 1.6338673 192.78556509 4 196 C2.02 197.98 2.02 197.98 0 200 C0 134 0 68 0 0 Z " fill="#157CD4" transform="translate(383,133)"/>
</svg>
