<?xml version="1.0" encoding="UTF-8"?>
<svg version="1.1" xmlns="http://www.w3.org/2000/svg" width="256" height="256">
<path d="M0 0 C1.26673553 -0.00686325 2.53347107 -0.0137265 3.83859253 -0.02079773 C7.27680398 -0.03856607 10.71475796 -0.03759187 14.15300131 -0.03185534 C17.04025344 -0.02873924 19.92745782 -0.03488265 22.81470311 -0.04089409 C29.63497364 -0.05488446 36.45511877 -0.0534244 43.27539062 -0.04199219 C50.27372586 -0.03051956 57.27167747 -0.04458458 64.26996219 -0.07138866 C70.31371219 -0.09365626 76.35734275 -0.10015824 82.4011308 -0.09431225 C85.99530623 -0.09096734 89.58923602 -0.09319083 93.18337631 -0.11056328 C97.1980128 -0.12912574 101.21191925 -0.11473259 105.2265625 -0.09765625 C106.39167358 -0.10732422 107.55678467 -0.11699219 108.75720215 -0.12695312 C120.00507937 -0.02753197 130.79215456 2.81971068 140.80517578 7.96655273 C141.79723022 8.4736377 141.79723022 8.4736377 142.80932617 8.9909668 C160.21282418 18.30345643 172.71048764 34.12978069 178.53196812 52.95665169 C180.61639399 60.63135558 181.17725906 67.73204083 181.14672852 75.66137695 C181.15702339 77.56148026 181.15702339 77.56148026 181.16752625 79.49996948 C181.18529458 82.93818093 181.18432038 86.37613491 181.17858386 89.81437826 C181.17546776 92.7016304 181.18161117 95.58883477 181.18762261 98.47608006 C181.20161298 105.29635059 181.20015291 112.11649572 181.1887207 118.93676758 C181.17724808 125.93510282 181.1913131 132.93305443 181.21811718 139.93133914 C181.24038478 145.97508915 181.24688675 152.0187197 181.24104077 158.06250775 C181.23769586 161.65668318 181.23991934 165.25061297 181.25729179 168.84475327 C181.27585425 172.85938975 181.26146111 176.8732962 181.24438477 180.88793945 C181.25405273 182.05305054 181.2637207 183.21816162 181.27368164 184.4185791 C181.17388451 195.70899151 178.30585612 206.49298916 173.11767578 216.52905273 C172.77849121 217.19227539 172.43930664 217.85549805 172.08984375 218.53881836 C162.2713735 236.96119415 145.38917486 248.7741329 125.73486328 254.93139648 C121.20672907 256.00571852 116.82344255 256.52972022 112.17332458 256.54449463 C110.54837318 256.55305984 110.54837318 256.55305984 108.89059448 256.5617981 C107.71699371 256.56291595 106.54339294 256.56403381 105.33422852 256.56518555 C104.08626999 256.57015045 102.83831146 256.57511536 101.55253601 256.58023071 C98.13888852 256.59230723 94.72530204 256.59978959 91.3116405 256.60424137 C89.17307511 256.60718213 87.03451496 256.61128888 84.89595222 256.61574554 C78.18810854 256.62940908 71.48027698 256.63908013 64.77242035 256.64294744 C57.06097409 256.64741915 49.34970588 256.66493043 41.63831371 256.69394803 C35.65756834 256.71566215 29.67687269 256.72565695 23.69608837 256.72698855 C20.13373737 256.72803007 16.57155398 256.73379635 13.00924492 256.75180817 C9.02501756 256.77156207 5.04115597 256.76696145 1.05688477 256.76049805 C-0.10254639 256.76971283 -1.26197754 256.77892761 -2.45654297 256.78842163 C-13.44349507 256.73294945 -23.83157999 254.80158271 -33.56982422 249.59155273 C-34.58580688 249.06489014 -34.58580688 249.06489014 -35.62231445 248.52758789 C-40.54794233 245.91902951 -45.01117304 243.0263618 -49.25732422 239.40405273 C-49.82193359 238.98124023 -50.38654297 238.55842773 -50.96826172 238.12280273 C-64.42116919 227.6526666 -72.1166213 210.78535826 -75.25732422 194.40405273 C-75.65256169 189.97915472 -75.67847454 185.58728274 -75.66137695 181.14672852 C-75.6682402 179.87999298 -75.67510345 178.61325745 -75.68217468 177.30813599 C-75.69994302 173.86992454 -75.69896882 170.43197056 -75.6932323 166.99372721 C-75.6901162 164.10647507 -75.69625961 161.21927069 -75.70227104 158.33202541 C-75.71626141 151.51175488 -75.71480135 144.69160975 -75.70336914 137.87133789 C-75.69189651 130.87300265 -75.70596154 123.87505104 -75.73276561 116.87676632 C-75.75503321 110.83301632 -75.76153519 104.78938576 -75.7556892 98.74559772 C-75.75234429 95.15142229 -75.75456778 91.5574925 -75.77194023 87.9633522 C-75.79050269 83.94871572 -75.77610955 79.93480927 -75.7590332 75.92016602 C-75.76870117 74.75505493 -75.77836914 73.58994385 -75.78833008 72.38952637 C-75.68890892 61.14164915 -72.84166627 50.35457396 -67.69482422 40.34155273 C-67.35676758 39.68018311 -67.01871094 39.01881348 -66.67041016 38.33740234 C-57.35792052 20.93390433 -41.53159627 8.43624088 -22.70472527 2.6147604 C-15.03002138 0.53033452 -7.92933612 -0.03053055 0 0 Z " fill="#126BD7" transform="translate(75.25732421875,-0.404052734375)"/>
<path d="M0 0 C3.12001504 1.68818449 5.39047471 3.78094941 7 7 C7.12038838 9.57735502 7.18558864 12.13238165 7.2109375 14.7109375 C7.23900668 16.28126041 7.26767115 17.85157278 7.296875 19.421875 C7.33813452 21.899411 7.37501861 24.37675018 7.40136719 26.85449219 C7.42899247 29.24455518 7.47486257 31.63372073 7.5234375 34.0234375 C7.52669037 34.76210052 7.52994324 35.50076355 7.53329468 36.2618103 C7.63494273 40.51984419 8.01558921 42.92522776 11 46 C13.08337782 46.59792112 13.08337782 46.59792112 15.44067383 46.50793457 C16.34919098 46.51921387 17.25770813 46.53049316 18.1937561 46.54211426 C19.1881369 46.53401733 20.1825177 46.52592041 21.20703125 46.51757812 C22.25603607 46.5245874 23.30504089 46.53159668 24.38583374 46.53881836 C27.86165654 46.5564581 31.33666858 46.54475386 34.8125 46.53125 C37.2224137 46.53394318 39.63232635 46.53782414 42.04223633 46.54284668 C47.09629651 46.54874986 52.15007418 46.54015205 57.20410156 46.52148438 C63.69119248 46.49869481 70.1776215 46.51181344 76.66468811 46.53577423 C81.64201875 46.55020982 86.61919178 46.54563642 91.5965271 46.53526306 C93.98880084 46.5325896 96.38108877 46.53588718 98.77334595 46.54518127 C102.11360731 46.55530964 105.45278813 46.53989666 108.79296875 46.51757812 C110.28453995 46.52972351 110.28453995 46.52972351 111.8062439 46.54211426 C112.71476105 46.53083496 113.6232782 46.51955566 114.55932617 46.50793457 C115.34909348 46.50642647 116.13886078 46.50491837 116.95256042 46.50336456 C119.16316564 46.15186039 119.16316564 46.15186039 120.75547791 44.19149017 C122.59448029 40.9531743 122.38229751 37.78551796 122.3359375 34.1640625 C122.34845115 32.60937083 122.36148833 31.05468331 122.375 29.5 C122.37892589 27.06202452 122.37499675 24.62445968 122.36035156 22.18652344 C122.35174759 19.82425523 122.37351699 17.46368166 122.3984375 15.1015625 C122.38509369 14.37949615 122.37174988 13.65742981 122.35800171 12.91348267 C122.44105884 7.1815329 124.0780937 4.87453849 128 1 C131.72466849 -0.86233425 135.94495313 -0.57130829 140 0 C143.12578143 1.6720747 145.39281175 3.7856235 147 7 C147.10450742 8.44342638 147.14865079 9.89147215 147.16113281 11.33862305 C147.17074036 12.23683273 147.1803479 13.13504242 147.19024658 14.06047058 C147.1966214 15.52133842 147.1966214 15.52133842 147.203125 17.01171875 C147.20882507 18.01330521 147.21452515 19.01489166 147.22039795 20.04682922 C147.22985756 22.17110129 147.23638573 24.29538809 147.24023438 26.41967773 C147.24990886 29.65700266 147.28091058 32.89368439 147.3125 36.13085938 C147.31903316 38.19530873 147.3242824 40.25976263 147.328125 42.32421875 C147.3404718 43.28800949 147.3528186 44.25180023 147.36553955 45.24479675 C147.3407678 52.78891687 145.89080279 58.31149915 140.875 64.1875 C140.35679687 64.82042969 139.83859375 65.45335937 139.3046875 66.10546875 C132.0770027 72.04687066 124.5218762 72.58525744 115.46289062 72.53344727 C114.23732956 72.54206284 113.01176849 72.55067841 111.74906921 72.55955505 C108.41198569 72.57827287 105.07590217 72.57914347 101.73884392 72.57023358 C98.94321417 72.56509585 96.14767197 72.57243853 93.35205126 72.57970566 C86.75301372 72.5966594 80.15420769 72.59318411 73.55517578 72.57641602 C66.76745248 72.55949059 59.98037212 72.5753446 53.19271898 72.6076389 C47.34441414 72.63440058 41.49630863 72.64159342 35.64794874 72.63312382 C32.16394232 72.62821466 28.68032262 72.63030012 25.19636536 72.65091133 C21.30969382 72.67280829 17.42378797 72.65379546 13.53710938 72.63110352 C11.82553902 72.64864182 11.82553902 72.64864182 10.07939148 72.66653442 C1.68088293 72.56702312 -3.86882225 70.44498212 -10.3046875 65.078125 C-10.82289062 64.47484375 -11.34109375 63.8715625 -11.875 63.25 C-12.40867187 62.65703125 -12.94234375 62.0640625 -13.4921875 61.453125 C-17.5519971 54.84804617 -18.4604871 47.98110996 -18.43359375 40.36328125 C-18.4388356 39.48020798 -18.44407745 38.5971347 -18.44947815 37.68730164 C-18.45585535 35.83606003 -18.45461769 33.98477766 -18.44604492 32.13354492 C-18.43748941 29.30900232 -18.46642832 26.48645525 -18.49804688 23.66210938 C-18.49965813 21.85416727 -18.4990828 20.0462216 -18.49609375 18.23828125 C-18.50732773 17.4006575 -18.51856171 16.56303375 -18.53013611 15.70002747 C-18.46633815 10.31822618 -17.53565622 7.29208764 -14 3 C-9.83326433 -0.94919526 -5.48271407 -0.94976149 0 0 Z " fill="#FDFDFE" transform="translate(63,136)"/>
<path d="M0 0 C3.16726676 1.81385044 5.38049243 3.69705927 7.95001221 6.27832031 C9.32108124 7.6448877 9.32108124 7.6448877 10.71984863 9.0390625 C11.69882322 10.03004118 12.67755696 11.02125783 13.65606689 12.01269531 C14.67344619 13.03313605 15.69142066 14.05298371 16.70996094 15.07226562 C18.83593308 17.2028252 20.95691911 19.33818007 23.07403564 21.47753906 C25.78633688 24.21819331 28.50730603 26.95003019 31.23158646 29.67877197 C33.33044782 31.78179062 35.42646333 33.88762507 37.52144623 35.99450684 C38.52411575 37.00286699 39.52725068 38.01076458 40.5308609 39.01818848 C41.93100795 40.42521594 43.32731796 41.83605855 44.72344971 43.24707031 C45.51809631 44.04854492 46.31274292 44.85001953 47.13146973 45.67578125 C51.31893803 50.16538384 51.51154466 53.18020894 51.39434814 59.09472656 C50.96196026 62.74066388 49.87912837 64.41575529 47.07794189 66.76269531 C43.09746973 69.02188222 39.59269553 69.3748653 35.07794189 68.76269531 C28.19086331 64.77367798 22.62843929 58.61434936 17.07794189 53.01269531 C15.77276611 51.71912109 15.77276611 51.71912109 14.44122314 50.39941406 C13.62009033 49.57570312 12.79895752 48.75199219 11.95294189 47.90332031 C11.20786377 47.15598633 10.46278564 46.40865234 9.69512939 45.63867188 C8.07794189 43.76269531 8.07794189 43.76269531 8.07794189 41.76269531 C7.41794189 41.76269531 6.75794189 41.76269531 6.07794189 41.76269531 C6.09126556 42.61158829 6.10458923 43.46048126 6.11831665 44.33509827 C6.23876797 52.35308755 6.33000456 60.37077101 6.38881493 68.38945866 C6.42006745 72.51157941 6.46242615 76.63294976 6.53057861 80.75463867 C6.59599255 84.73583232 6.63169364 88.71630638 6.64720535 92.69799614 C6.65825263 94.21346802 6.67982639 95.72890252 6.71232224 97.24406624 C6.98722823 110.59865116 6.98722823 110.59865116 3.2288208 115.1862793 C0.34894706 117.94877497 -2.20079569 118.6656023 -6.17205811 119.20019531 C-11.13796105 118.62083997 -13.6896755 116.48121462 -16.92205811 112.76269531 C-19.10674971 109.28964046 -19.19369135 106.40223591 -19.24090576 102.34179688 C-19.26077545 101.04075012 -19.28064514 99.73970337 -19.30111694 98.39923096 C-19.31299252 96.98392914 -19.32465543 95.56862552 -19.33612061 94.15332031 C-19.35483607 92.70171003 -19.37440977 91.25011059 -19.39480591 89.79852295 C-19.44609333 85.98458245 -19.48573702 82.17060669 -19.52294922 78.35650635 C-19.56301023 74.46186628 -19.61409298 70.56737244 -19.66424561 66.67285156 C-19.7609647 59.03623321 -19.84538215 51.399544 -19.92205811 43.76269531 C-20.55708252 44.41343018 -21.19210693 45.06416504 -21.84637451 45.73461914 C-24.22209022 48.16167942 -26.60457903 50.58167185 -28.99188232 52.99731445 C-30.02069127 54.04114369 -31.04678351 55.08765819 -32.07000732 56.13696289 C-33.54735216 57.65098961 -35.03442948 59.15486104 -36.52362061 60.65722656 C-37.41387939 61.5631958 -38.30413818 62.46916504 -39.22137451 63.40258789 C-43.05026274 66.748625 -46.36769842 68.56840035 -51.42205811 69.20019531 C-55.6035634 68.67750715 -57.67635747 67.40454466 -60.92205811 64.76269531 C-63.05325453 61.56590068 -63.32114931 60.31251251 -63.48455811 56.57519531 C-63.54772217 55.67414063 -63.61088623 54.77308594 -63.67596436 53.84472656 C-61.67203722 45.65250631 -51.98043899 38.66051182 -46.19158936 32.86425781 C-45.2787468 31.94808685 -44.36590424 31.03191589 -43.42539978 30.08798218 C-41.50848164 28.16512684 -39.58956 26.24429733 -37.66937256 24.32470703 C-35.2131253 21.86856215 -32.76387692 19.40556049 -30.31625843 16.94082069 C-27.96669395 14.57747224 -25.60996262 12.22131739 -23.25408936 9.86425781 C-22.37799515 8.98097809 -21.50190094 8.09769836 -20.59925842 7.18765259 C-19.372295 5.96530411 -19.372295 5.96530411 -18.12054443 4.71826172 C-17.40441483 4.00070709 -16.68828522 3.28315247 -15.95045471 2.54385376 C-11.07447471 -1.7378005 -6.10239014 -2.58397186 0 0 Z " fill="#FBFCFE" transform="translate(133.92205810546875,49.2373046875)"/>
</svg>
